<svg width="1728" height="1227" viewBox="0 0 1728 1227" fill="none" xmlns="http://www.w3.org/2000/svg">
<path fill-rule="evenodd" clip-rule="evenodd" d="M1122.46 327.593C1130.61 361.402 1165.42 421.34 1243.94 489.007C1328.25 561.669 1406.68 631.365 1459.95 692.162C1486.28 722.215 1515.01 759.518 1533.14 801.094C1552.95 846.553 1563.57 906.917 1533.32 961.07C1506.56 1008.97 1459.22 1030.25 1422.07 1040.97C1382.92 1052.26 1336.17 1057.16 1285.48 1058.64C1183.61 1061.6 1040.77 1051.13 852.888 1029.18C500.83 988.044 269.749 1041.1 129.821 1103.68C59.4054 1135.17 11.873 1169.16 -16.697 1195.08C-31.1253 1208.18 -39.7214 1218.31 -43.8467 1223.98C-45.0951 1225.7 -45.605 1226.55 -45.6071 1226.55C-45.6071 1226.55 -45.3564 1226.12 -44.932 1225.26C-44.4049 1224.2 -43.0809 1221.41 -41.6765 1217.1C-40.4841 1213.44 -37.8753 1204.65 -37.2164 1192.08L-301.272 1134.34C-299.869 1107.57 -290.464 1087.6 -286.434 1079.46C-280.901 1068.29 -274.203 1057.85 -267.381 1048.47C-253.602 1029.54 -235.196 1009.31 -212.679 988.872C-167.36 947.743 -101.234 902.012 -11.4738 861.868C168.948 781.177 383.463 716.16 838.697 769.351C1021.18 790.673 1146.9 799.213 1228.94 797.197C1194.29 763.654 1148.4 722.881 1090.83 673.272C983.198 580.512 894.462 464.87 865.672 345.538C850.739 283.641 851.994 219.588 878.226 162.398C904.422 105.287 951.277 64.2483 1010.38 38.1781C1124.21 -12.0294 1291.94 -11.2596 1504.83 34.4273C1721.61 80.9486 2002.6 177.85 2358.03 340.616L2282.97 575.103C1940 418.042 1681.1 330.333 1492.55 289.868C1300.1 248.568 1197.05 259.976 1150.66 280.439C1129.66 289.704 1124.05 299.008 1122.42 302.549C1120.84 306.011 1118.92 312.919 1122.46 327.593Z" fill="#273A3E" fill-opacity="0.4"/>
</svg>
